
***** S. Darko.2009.DVDRiP.x264.[2]Audio.[8]Sub.mkv.Zen_Bud *****

Format                           : Matroska
File size                        : 1.11 GiB
Duration                         : 1h 38mn
Overall bit rate                 : 1 612 Kbps
Writing application              : HandBrake 0.9.4

Video

Format                           : AVC
Duration                         : 1h 38mn
Bit rate                         : 1 020 Kbps
Width                            : 720 pixels
Height                           : 576 pixels
Display aspect ratio             : 16:9
Stream size                      : 722 MiB (63%)
Writing library                  : x264 core 79


Audio #1

Format                           : AC-3
Duration                         : 1h 38mn
Bit rate                         : 448 Kbps
Channel(s)                       : 6 channels
Channel positions                : Front: L C R, Side: L R, LFE
Sampling rate                    : 48.0 KHz
Bit depth                        : 16 bits
Stream size                      : 317 MiB (28%)
Language.........................: English

Audio #2

Format                           : MPEG Audio
Codec ID/Hint                    : MP3
Duration                         : 1h 38mn
Bit rate                         : 112 Kbps
Channel(s)                       : 2 channels
Sampling rate                    : 48.0 KHz
Stream size                      : 79.2 MiB (7%)
Writing library                  : LAME3.98
Language.........................: Spanish

Text #1
Language                         : Croatian

Text #2
Language                         : Danish

Text #3
Language                         : English

Text #4
Language                         : Finnish

Text #5
Language                         : Norwegian

Text #6
Language                         : Romanian

Text #7
Language                         : Spanish

Text #8
Language                         : Swedish

Menu
00:00:00.000                     : Chapter 1
00:02:00.480                     : Chapter 2


